<?xml version="1.0" encoding="UTF-8" standalone="no"?>
<!-- Created with Inkscape (http://www.inkscape.org/) -->

<svg
   xmlns:dc="http://purl.org/dc/elements/1.1/"
   xmlns:cc="http://creativecommons.org/ns#"
   xmlns:rdf="http://www.w3.org/1999/02/22-rdf-syntax-ns#"
   xmlns:svg="http://www.w3.org/2000/svg"
   xmlns="http://www.w3.org/2000/svg"
   xmlns:sodipodi="http://sodipodi.sourceforge.net/DTD/sodipodi-0.dtd"
   xmlns:inkscape="http://www.inkscape.org/namespaces/inkscape"
   width="859.35999"
   height="857.09003"
   id="svg2"
   version="1.1"
   inkscape:version="0.48.4 r9939"
   sodipodi:docname="Urdu2.svg">
  <defs
     id="defs4" />
  <sodipodi:namedview
     id="base"
     pagecolor="#ffffff"
     bordercolor="#666666"
     borderopacity="1.0"
     inkscape:pageopacity="0.0"
     inkscape:pageshadow="2"
     inkscape:zoom="0.62187166"
     inkscape:cx="429.67999"
     inkscape:cy="428.54501"
     inkscape:document-units="px"
     inkscape:current-layer="layer1"
     showgrid="false"
     inkscape:window-width="1024"
     inkscape:window-height="749"
     inkscape:window-x="-4"
     inkscape:window-y="-4"
     inkscape:window-maximized="1"
     width="1052.36px" />
  <metadata
     id="metadata7">
    <rdf:RDF>
      <cc:Work
         rdf:about="">
        <dc:format>image/svg+xml</dc:format>
        <dc:type
           rdf:resource="http://purl.org/dc/dcmitype/StillImage" />
        <dc:title></dc:title>
      </cc:Work>
    </rdf:RDF>
  </metadata>
  <g
     inkscape:label="Layer 1"
     inkscape:groupmode="layer"
     id="layer1"
     transform="translate(0,-195.28118)">
    <g
       id="g3768"
       transform="translate(-838.09867,509.06162)">
      <g
         style="font-size:1000px;font-style:normal;font-weight:normal;line-height:125%;letter-spacing:-28.17000008px;word-spacing:0px;fill:#000000;fill-opacity:1;stroke:none;font-family:Sans"
         id="flowRoot2986" />
      <g
         style="font-size:1000px;font-style:normal;font-variant:normal;font-weight:normal;font-stretch:normal;text-align:start;line-height:125%;letter-spacing:-28.17000008px;word-spacing:0px;writing-mode:lr-tb;text-anchor:start;fill:#000000;fill-opacity:1;stroke:none;font-family:Jameel Noori Nastaleeq;-inkscape-font-specification:Jameel Noori Nastaleeq"
         id="text2994">
        <path
           d="m 1642.9938,-143.61719 c -15.2996,17.57877 -32.0639,32.06443 -50.293,43.45703 -6.5105,3.906863 -19.8568,10.091753 -40.0391,18.554691 -10.4167,3.581321 -21.9726,4.395122 -34.6679,2.441407 l 13.6718,-7.324219 14.1602,-7.8125 22.9492,-16.113279 53.2227,-44.92188 c -8.1382,-6.18422 -15.7879,-13.50843 -22.9492,-21.97265 -2.2788,-6.83524 -4.7202,-14.15946 -7.3243,-21.97266 0,-20.8326 7.6497,-41.50315 22.9493,-62.01172 8.7889,-11.39244 20.1821,-18.06561 34.1796,-20.01953 22.1353,7.9e-4 33.203,14.3237 33.2032,42.96875 l 0,12.20703 c -2e-4,7.81323 -5.0458,22.78718 -15.1367,44.92188 -5.5341,12.04495 -13.5093,24.57749 -23.9258,37.59765 z m 8.789,-65.91797 c -10e-5,-17.25186 -8.6264,-27.18024 -25.8789,-29.78515 l -2.9297,0.97656 -2.9296,1.95313 -3.418,6.83593 c -10e-5,5.53459 2.5227,11.14982 7.5683,16.84571 5.0455,5.69733 13.2649,12.12636 24.6582,19.28711 1.953,-5.85867 2.9296,-11.22976 2.9297,-16.11329 z"
           style=""
           id="path3000" />
        <path
           d="m 1645.7731,-13.246094 c -2.2787,12.0447932 -4.7201,29.785661 -7.3242,53.222656 -2.6042,29.948368 -4.2318,71.289468 -4.8828,124.023438 -10e-5,60.54717 -0.6511,102.86484 -1.9531,126.95312 -2.6043,51.43248 -16.6017,105.14336 -41.9922,161.13282 -4.8829,10.41672 -9.2774,15.62505 -13.1836,15.625 -1.9532,5e-5 -3.9063,-0.65099 -5.8594,-1.95313 -4.5573,-2.60411 -6.1849,-8.62624 -4.8828,-18.0664 5.2083,-17.90356 9.4401,-62.82539 12.6953,-134.76563 -4.5573,-57.94244 -6.1849,-122.88378 -4.8828,-194.82422 10.7422,-36.132371 29.4596,-80.891441 56.1524,-134.277341 6.5103,-3.905709 11.8814,-2.929148 16.1132,2.929687 z"
           style=""
           id="path3002" />
      </g>
      <g
         style="font-size:1000px;font-style:normal;font-variant:normal;font-weight:normal;font-stretch:normal;text-align:start;line-height:125%;letter-spacing:-28.17000008px;word-spacing:0px;writing-mode:lr-tb;text-anchor:start;fill:#000000;fill-opacity:1;stroke:none;font-family:Jameel Noori Nastaleeq;-inkscape-font-specification:Jameel Noori Nastaleeq"
         id="text2998">
        <path
           d="m 1316.8053,471.43863 c -12.0443,2.60418 -31.7383,6.34767 -59.082,11.23047 -5.8594,0 -9.4402,-2.11588 -10.7422,-6.34766 -0.6511,-5.85935 3.9062,-11.3932 13.6719,-16.60156 25.3905,-16.276 50.7811,-32.38926 76.1718,-48.33984 29.9478,-19.20564 54.1991,-37.10926 72.7539,-53.71094 19.5311,-22.13526 37.923,-54.52456 55.1758,-97.16797 12.6951,-36.13255 25.3904,-72.10256 38.086,-107.91016 1.9528,-5.53351 6.3473,-8.30043 13.1835,-8.30078 5.8591,3.5e-4 8.7888,2.76727 8.7891,8.30078 1.3018,12.69564 -4.0693,41.66696 -16.1133,86.91407 -20.508,78.77621 -45.0848,142.41547 -73.7304,190.91796 -10.7424,17.90369 -28.4833,28.97139 -53.2227,33.20313 -21.81,2.60419 -43.4571,5.20835 -64.9414,7.8125 z"
           style=""
           id="path3005" />
      </g>
      <g
         style="font-size:1000px;font-style:normal;font-variant:normal;font-weight:normal;font-stretch:normal;text-align:start;line-height:125%;letter-spacing:-28.17000008px;word-spacing:0px;writing-mode:lr-tb;text-anchor:start;fill:#000000;fill-opacity:1;stroke:none;font-family:Jameel Noori Nastaleeq;-inkscape-font-specification:Jameel Noori Nastaleeq"
         id="text3002">
        <path
           d="m 1291.3923,198.27176 c 3.255,13.34664 4.8826,27.0185 4.8828,41.01562 -2e-4,27.34399 -6.9989,57.94291 -20.996,91.79688 -1.3024,2.60433 -15.2997,31.57566 -41.9922,86.91406 -3.2554,7.48705 -10.9052,16.92715 -22.9493,28.32031 -31.2501,9.76567 -79.2644,22.29821 -144.0429,37.59766 -4.5573,2.9297 -7.8125,0.65106 -9.7656,-6.83594 1.302,-1.9531 12.858,-10.57939 34.6679,-25.8789 13.9974,-10.09109 38.4114,-24.41399 73.2422,-42.96875 31.2499,-15.95042 54.8501,-30.59884 70.8008,-43.94532 10.742,-12.04412 13.1834,-30.11051 7.3242,-54.19921 -7.4872,-28.64562 -30.5991,-52.24586 -69.3359,-70.80079 -2.6043,-3.58046 -2.6043,-7.64947 0,-12.20703 1.953,-3.90597 4.0688,-7.97498 6.3476,-12.20703 7.1613,-25.06479 16.7642,-55.3382 28.8086,-90.82031 17.9035,1.30246 34.8306,9.60323 50.7813,24.90234 13.9971,13.99773 24.7393,30.43652 32.2265,49.31641 z"
           style=""
           id="path3008" />
      </g>
      <g
         id="g3764">
        <g
           style="font-size:1000px;font-style:normal;font-variant:normal;font-weight:normal;font-stretch:normal;text-align:start;line-height:125%;letter-spacing:-28.17000008px;word-spacing:0px;writing-mode:lr-tb;text-anchor:start;fill:#000000;fill-opacity:1;stroke:none;font-family:Jameel Noori Nastaleeq;-inkscape-font-specification:Jameel Noori Nastaleeq"
           id="text3006">
          <path
             d="m 1246.2524,-21.518921 c -15.2996,17.5787643 -32.0639,32.064427 -50.293,43.457031 -6.5105,3.90686 -19.8568,10.091749 -40.039,18.554688 -10.4167,3.58132 -21.9727,4.395121 -34.668,2.441406 l 13.6719,-7.324219 14.1601,-7.8125 22.9493,-16.113281 53.2226,-44.921875 c -8.1381,-6.184221 -15.7878,-13.508433 -22.9492,-21.972656 -2.2787,-6.83524 -4.7201,-14.159452 -7.3242,-21.972656 -10e-5,-20.8326 7.6496,-41.503157 22.9492,-62.011717 8.7889,-11.39245 20.1822,-18.06562 34.1797,-20.01953 22.1352,7.9e-4 33.2029,14.32369 33.2031,42.96875 l 0,12.20703 c -2e-4,7.813229 -5.0457,22.787173 -15.1367,44.921873 -5.534,12.044953 -13.5093,24.577493 -23.9258,37.597656 z m 8.7891,-65.917969 c -2e-4,-17.25186 -8.6265,-27.18024 -25.8789,-29.78516 l -2.9297,0.97657 -2.9297,1.95312 -3.418,6.83594 c -10e-5,5.53459 2.5227,11.149819 7.5684,16.845702 5.0454,5.697335 13.2648,12.126365 24.6582,19.28711 1.953,-5.858663 2.9295,-11.229751 2.9297,-16.113282 z"
             style=""
             id="path3011" />
        </g>
      </g>
      <g
         style="font-size:1000px;font-style:normal;font-variant:normal;font-weight:normal;font-stretch:normal;text-align:start;line-height:125%;letter-spacing:-28.17000008px;word-spacing:0px;writing-mode:lr-tb;text-anchor:start;fill:#000000;fill-opacity:1;stroke:none;font-family:Jameel Noori Nastaleeq;-inkscape-font-specification:Jameel Noori Nastaleeq"
         id="text3010">
        <path
           d="m 1084.3917,294.75336 c -4.5575,32.55224 -21.8101,75.84647 -51.7578,129.88281 -8.1382,14.64848 -22.1355,24.57686 -41.99218,29.78516 -16.60166,4.23179 -33.69149,8.62632 -51.26953,13.18359 -12.69537,3.90626 -31.90108,9.60287 -57.61719,17.08984 -6.1849,1e-5 -9.92838,-1.95312 -11.23046,-5.85937 -10e-6,-4.8828 4.39452,-9.92837 13.18359,-15.13672 26.69267,-15.95048 53.38535,-31.57547 80.07812,-46.875 29.29676,-18.88012 54.19905,-37.92307 74.70705,-57.12891 6.1847,-8.13788 8.1378,-19.20558 5.8594,-33.20312 -3.9065,-9.76546 -8.4637,-16.43863 -13.6719,-20.01953 -6.8361,1.30226 -13.1838,1.9533 -19.043,1.95312 -24.08864,1.8e-4 -42.15503,-8.30059 -54.1992,-24.90234 -4.55738,-7.81229 -6.83602,-16.11306 -6.83594,-24.90235 -8e-5,-9.43986 2.9296,-21.1586 8.78906,-35.15625 5.53376,-10.41639 10.57933,-21.48409 15.13672,-33.20312 4.55718,-11.71844 8.95171,-24.25098 13.1836,-37.59766 7.16133,-14.64809 16.76416,-24.25094 28.80856,-28.80859 22.1353,-4.2314 39.8761,4.72041 53.2227,26.85547 14.6482,24.73989 21.9724,54.03674 21.9726,87.89062 -2e-4,17.90388 -2.4416,36.62131 -7.3242,56.15235 z"
           style=""
           id="path3014" />
      </g>
    </g>
  </g>
</svg>
