<svg style="object-fit:cover" id="my-svg" version="1" baseProfile="full" width="100%" height="100%" viewBox="0 0 1530 746" xmlns="http://www.w3.org/2000/svg"><rect width="1530" height="746" fill="#ffffff"/><defs><linearGradient id="linear-gradient" x1="0.5" x2="0.5" y1="0" y2="1"><stop offset="0%" stop-color="#ffffff80"/><stop offset="100%" stop-color="#00000080"/></linearGradient></defs><path transform="scale(1, -1)" d="M 0,746 V 0,223 C 55.07236045474386,196.2742507923855 110.14472090948772,169.548501584771 150,191 C 189.85527909051228,212.451498415229 214.4934768167929,282.0802444533015 246,281 C 277.5065231832071,279.9197555466985 315.8813718233407,208.13052060202318 367,197 C 418.1186281766593,185.86947939797682 481.9810358898442,235.3976731386058 529,265 C 576.0189641101558,294.6023268613942 606.1944846172825,304.2787868435537 640,280 C 673.8055153827175,255.72121315644634 711.2410256410257,197.4871794871795 753,183 C 794.7589743589743,168.5128205128205 840.8414128186148,197.77249520772835 883,205 C 925.1585871813852,212.22750479227165 963.3933230845148,197.42283968190705 1002,192 C 1040.6066769154852,186.57716031809295 1079.5852948433258,190.53614606464348 1125,182 C 1170.4147051566742,173.46385393535652 1222.2654975421815,152.43257605951905 1267,159 C 1311.7345024578185,165.56742394048095 1349.3527149879483,199.73354969728027 1392,215 C 1434.6472850120517,230.26645030271973 1482.3236425060259,226.63322515135985 1530,223 C 1530,223 1530,746 1530,746 Z" stroke="none" stroke-width="0" fill="url(#linear-gradient)" class="transition-all duration-300 ease-in-out delay-150" style="transform-origin: center center;"/><defs><linearGradient id="linear-gradient" x1="0.5" x2="0.5" y1="0" y2="1"><stop offset="0%" stop-color="#ffffff90"/><stop offset="100%" stop-color="#00000090"/></linearGradient></defs><path transform="scale(1, -1)" d="M 0,746 V 0,335 C 37.214061758621355,382.349757065042 74.42812351724271,429.6995141300841 112,409 C 149.5718764827573,388.3004858699159 187.50156768965059,299.55170054470574 239,273 C 290.4984323103494,246.44829945529426 355.5656057241549,282.093683691093 397,278 C 438.4343942758451,273.906316308907 456.23600941372956,230.07356469092224 492,257 C 527.7639905862704,283.92643530907776 581.4903566209266,381.61205754521814 625,389 C 668.5096433790734,396.38794245478186 701.802564102564,313.47820512820516 742,305 C 782.197435897436,296.52179487179484 829.299386968817,362.47512194196133 874,397 C 918.700613031183,431.52487805803867 960.9998880221679,434.62130710394956 1012,397 C 1063.0001119778321,359.37869289605044 1122.7010609425117,281.03964964224036 1163,278 C 1203.2989390574883,274.96035035775964 1224.1958682077855,347.2200943270891 1262,354 C 1299.8041317922145,360.7799056729109 1354.5154662263471,302.0799730494031 1402,288 C 1449.4845337736529,273.9200269505969 1489.7422668868264,304.4600134752984 1530,335 C 1530,335 1530,746 1530,746 Z" stroke="none" stroke-width="0" fill="url(#linear-gradient)" class="transition-all duration-300 ease-in-out delay-150" style="transform-origin: center center;"/><defs><linearGradient id="linear-gradient" x1="0.5" x2="0.5" y1="0" y2="1"><stop offset="0%" stop-color="#ffffffff"/><stop offset="100%" stop-color="#000000ff"/></linearGradient></defs><path transform="scale(1, -1)" d="M 0,746 V 0,503 C 44.05570802254741,530.684711230048 88.11141604509481,558.3694224600961 128,530 C 167.8885839549052,501.630577539904 203.61004384216818,417.2070213896639 243,422 C 282.3899561578318,426.7929786103361 325.4484085862324,520.8024919812484 369,553 C 412.5515914137676,585.1975080187516 456.59632181290215,555.5830106853423 498,519 C 539.4036781870979,482.4169893146577 578.1663041621591,438.8654652773823 623,455 C 667.8336958378409,471.1345347226177 718.7384615384616,546.9551282051282 772,550 C 825.2615384615384,553.0448717948718 880.8798496839947,483.31402190210474 915,486 C 949.1201503160053,488.68597809789526 961.7421397255596,563.7887841864526 1000,561 C 1038.2578602744404,558.2112158135474 1102.1515914137676,477.53084135208485 1151,456 C 1199.8484085862324,434.46915864791515 1233.6514946193702,472.0878504052079 1275,476 C 1316.3485053806298,479.9121495947921 1365.2424301087515,450.1177570270835 1409,449 C 1452.7575698912485,447.8822429729165 1491.3787849456244,475.44112148645826 1530,503 C 1530,503 1530,746 1530,746 Z" stroke="none" stroke-width="0" fill="url(#linear-gradient)" class="transition-all duration-300 ease-in-out delay-150" style="transform-origin: center center;"/></svg>